<svg width="63" height="40" viewBox="0 0 63 40" fill="none" xmlns="http://www.w3.org/2000/svg">
<path d="M1.7338 29.9826H8.42209C9.0416 29.9826 9.66111 30.3541 9.90822 30.9736C13.1285 38.7774 26.8776 36.6719 32.0802 35.9278H32.3281C35.0532 35.5563 37.2823 35.3083 39.3889 35.3083H47.6879C48.8025 35.3083 49.67 34.4408 49.67 33.3262C49.67 32.2116 48.8025 31.3442 47.6879 31.3442H35.673C34.8055 31.3442 33.9389 30.6011 33.9389 29.6101C33.9389 28.7426 34.6819 27.9996 35.673 27.9996L54.7487 28.0004C55.8633 28.0004 56.7308 27.133 56.7308 26.0184C56.7308 24.9038 55.8633 24.0363 54.7487 24.0363H38.1509C37.1599 24.0363 36.4169 23.2933 36.4169 22.4258C36.4169 21.4348 37.1599 20.6918 38.1509 20.6918L57.4738 20.6926C58.5883 20.6926 59.4558 19.8251 59.4558 18.7106C59.4558 17.596 58.5883 16.7285 57.4738 16.7285H39.6369C38.6458 16.7285 37.9028 15.9855 37.9028 14.9944C37.9028 14.127 38.6459 13.3839 39.6369 13.3839L54.7485 13.3848C55.8631 13.3848 56.7305 12.5173 56.7305 11.4027C56.7305 10.2881 55.8631 9.42069 54.7485 9.42069H40.2562C39.2652 10.5353 37.7791 11.0312 36.2921 11.0312H32.0809C28.9842 22.6748 18.8268 21.5602 18.7034 21.5602C17.8359 21.4367 17.2172 20.6928 17.2172 19.9497V19.7017C17.3408 18.8343 18.2083 18.0912 19.0749 18.2156C19.4464 18.2156 25.8877 18.9587 28.4884 11.1548C27.8689 11.1548 27.3739 11.2784 26.7544 11.4028L25.6398 11.6508C24.7723 11.8988 23.9057 11.2792 23.6577 10.4118C23.4098 9.54429 24.0293 8.6777 24.8967 8.42972L26.0113 8.18175C27.2503 7.93377 28.6129 7.81021 29.9755 7.81021H36.1688C36.7883 7.81021 37.2833 7.56224 37.6549 7.19071C38.0264 6.81918 38.2744 6.19967 38.2744 5.70459C38.2744 4.59 37.2833 3.72254 36.2923 3.72254L24.4008 3.47456C21.1805 3.35101 18.2075 4.58916 15.8538 6.81916L9.16553 13.2604C8.794 13.5084 8.42247 13.7555 8.05094 13.7555H1.73401C0.866531 13.7555 -5.9984e-05 13.0124 -5.9984e-05 12.0214C-5.9984e-05 11.0312 0.742997 10.1638 1.73401 10.1638H7.43228L13.6256 4.21844C16.5986 1.36975 20.4384 -0.117298 24.526 0.0072314L36.54 0.254344C39.3887 0.377898 41.7424 2.60801 41.8658 5.4567V6.07621H54.7483C57.597 6.07621 60.075 8.42988 60.075 11.4029C60.075 12.2704 59.827 13.0134 59.4555 13.7565C61.4375 14.4996 62.8 16.4816 62.8 18.7107C62.8 20.9399 61.4375 22.7983 59.4555 23.6649C59.827 24.408 60.075 25.151 60.075 26.0186C60.075 28.9916 57.7213 31.3444 54.7492 31.3444H52.52C52.768 31.9639 52.8916 32.5834 52.8916 33.3264C52.8916 36.2994 50.5379 38.6522 47.5658 38.6522H39.2668C37.2847 38.6522 35.1792 38.7757 32.7019 39.1473H32.4539C26.7557 40.0148 12.14 42.1203 7.3092 33.2019H1.73547C0.867989 33.2019 0.00139805 32.4589 0.00139805 31.4679C-0.000329879 30.7257 0.742727 29.9826 1.73374 29.9826L1.7338 29.9826Z" fill="black"/>
</svg>
