<svg width="63" height="40" viewBox="0 0 63 40" fill="none" xmlns="http://www.w3.org/2000/svg">
<path d="M61.0662 29.9826H54.3779C53.7584 29.9826 53.1389 30.3541 52.8918 30.9736C49.6715 38.7774 35.9224 36.6719 30.7198 35.9278H30.4718C27.7468 35.5563 25.5177 35.3083 23.4111 35.3083H15.1121C13.9975 35.3083 13.13 34.4408 13.13 33.3262C13.13 32.2116 13.9975 31.3442 15.1121 31.3442H27.127C27.9945 31.3442 28.8611 30.6011 28.8611 29.6101C28.8611 28.7426 28.118 27.9996 27.127 27.9996L8.05127 28.0004C6.93668 28.0004 6.06923 27.133 6.06923 26.0184C6.06923 24.9038 6.9367 24.0363 8.05127 24.0363H24.6491C25.6401 24.0363 26.3831 23.2933 26.3831 22.4258C26.3831 21.4348 25.6401 20.6918 24.6491 20.6918L5.32623 20.6926C4.21164 20.6926 3.34418 19.8251 3.34418 18.7106C3.34418 17.596 4.21166 16.7285 5.32623 16.7285H23.1631C24.1541 16.7285 24.8972 15.9855 24.8972 14.9944C24.8972 14.127 24.1541 13.3839 23.1631 13.3839L8.0515 13.3848C6.9369 13.3848 6.06944 12.5173 6.06944 11.4027C6.06944 10.2881 6.93693 9.42069 8.0515 9.42069H22.5438C23.5348 10.5353 25.0209 11.0312 26.5079 11.0312H30.7191C33.8158 22.6748 43.9732 21.5602 44.0966 21.5602C44.9641 21.4367 45.5827 20.6928 45.5827 19.9497V19.7017C45.4592 18.8343 44.5917 18.0912 43.7251 18.2156C43.3536 18.2156 36.9123 18.9587 34.3115 11.1548C34.9311 11.1548 35.4261 11.2784 36.0456 11.4028L37.1602 11.6508C38.0277 11.8988 38.8943 11.2792 39.1423 10.4118C39.3902 9.54429 38.7707 8.6777 37.9033 8.42972L36.7887 8.18175C35.5497 7.93377 34.187 7.81021 32.8245 7.81021H26.6312C26.0117 7.81021 25.5166 7.56224 25.1451 7.19071C24.7736 6.81918 24.5256 6.19967 24.5256 5.70459C24.5256 4.59 25.5166 3.72254 26.5077 3.72254L38.3992 3.47456C41.6195 3.35101 44.5925 4.58916 46.9461 6.81916L53.6345 13.2604C54.006 13.5084 54.3775 13.7555 54.749 13.7555H61.066C61.9335 13.7555 62.8 13.0124 62.8 12.0214C62.8 11.0312 62.057 10.1638 61.066 10.1638H55.3677L49.1744 4.21844C46.2014 1.36975 42.3616 -0.117298 38.274 0.0072314L26.2599 0.254344C23.4113 0.377898 21.0576 2.60801 20.9342 5.4567V6.07621H8.0517C5.20301 6.07621 2.72503 8.42988 2.72503 11.4029C2.72503 12.2704 2.973 13.0134 3.34453 13.7565C1.36248 14.4996 -6.10352e-05 16.4816 -6.10352e-05 18.7107C-6.10352e-05 20.9399 1.36251 22.7983 3.34453 23.6649C2.973 24.408 2.72503 25.151 2.72503 26.0186C2.72503 28.9916 5.0787 31.3444 8.05081 31.3444H10.2799C10.032 31.9639 9.90842 32.5834 9.90842 33.3264C9.90842 36.2994 12.2621 38.6522 15.2342 38.6522H23.5332C25.5152 38.6522 27.6208 38.7757 30.0981 39.1473H30.3461C36.0443 40.0148 50.66 42.1203 55.4908 33.2019H61.0645C61.932 33.2019 62.7986 32.4589 62.7986 31.4679C62.8003 30.7257 62.0573 29.9826 61.0662 29.9826L61.0662 29.9826Z" fill="white"/>
</svg>
