<svg width="52" height="40" viewBox="0 0 52 40" fill="none" xmlns="http://www.w3.org/2000/svg">
<path d="M51.9311 18.2438C51.9311 16.4307 51.0241 14.7469 49.6005 13.7106C50.5074 12.4152 50.8959 10.6023 50.3774 8.78918C49.6005 6.45855 47.269 4.9038 44.8091 4.9038H39.6293C38.464 2.8315 36.3917 1.40692 33.9309 1.1486L26.4196 0.112446C22.4051 -0.405182 18.3905 0.88934 15.2821 3.47935L7.77082 10.0839L1.81312 10.0848C0.906141 10.0848 8.99828e-05 10.8617 8.99828e-05 11.8978C8.99828e-05 12.934 0.776982 13.7108 1.81312 13.7108H8.41765C8.8061 13.7108 9.19455 13.5817 9.58299 13.3224L17.6121 6.19938C19.9427 4.12709 22.922 3.22099 25.9004 3.60951L33.4117 4.64566C35.6132 4.90493 37.1669 6.84714 37.1669 9.04861L37.0377 18.1137C37.0377 19.2791 36.1308 20.056 34.9655 20.056C34.4478 20.056 33.9293 19.7967 33.5408 19.4082C33.1533 19.0207 33.0241 18.5031 33.0241 17.8554L33.2834 11.6394C33.2834 10.7324 32.6357 9.95552 31.8588 9.82634L27.9734 9.17863C27.0664 9.04945 26.1604 9.69625 26.0312 10.6032C25.902 11.5102 26.5488 12.4163 27.4558 12.5454L29.398 12.8047C26.5489 19.0207 20.4619 18.5032 20.2027 18.5032C19.2957 18.374 18.3896 19.1509 18.2604 20.057V20.1861C18.2604 21.0931 18.9082 21.87 19.8142 21.87C22.2751 22.1292 26.4188 21.4815 29.6564 18.2438C29.7856 19.4092 30.3041 20.5745 31.2102 21.3522C31.5986 21.7406 31.9871 21.9999 32.5056 22.3883C31.988 23.2953 31.5986 24.3306 31.5986 25.4967C31.5986 27.3097 32.5056 28.8636 33.8001 29.8997C33.1524 30.8066 32.764 31.9719 32.764 33.1373C32.764 34.0443 33.0232 34.8211 33.2816 35.4679C28.3602 36.3749 23.1802 36.5041 19.4241 36.3749C16.1864 36.3749 13.208 34.691 11.5242 31.9719L10.4881 30.2881C10.2288 29.7705 9.5811 29.5112 9.06347 29.5112L1.81303 29.5103C0.906051 29.5103 0 30.2872 0 31.3233C0 32.3595 0.776892 33.1364 1.81303 33.1364H7.89977L8.4174 33.9132C10.748 37.6684 14.8927 40 19.2956 40C23.8288 40 30.4331 39.8708 36.3908 38.4462C36.9084 38.5754 37.5561 38.7055 38.0746 38.7055H43.7731C46.8814 38.7055 49.6006 36.2446 49.6006 33.1372C49.6006 31.8418 49.2121 30.8066 48.5644 29.7703C49.8598 28.7341 50.7659 27.1804 50.7659 25.3674C50.7659 24.202 50.3775 23.0367 49.7297 22.1297C51.0252 21.7404 51.9311 20.0569 51.9311 18.2438ZM40.7936 8.53087H45.1966C46.3619 8.53087 47.2689 9.43784 47.2689 10.6032C47.2689 11.7685 46.3619 12.6755 45.1966 12.6755H40.7936L40.9228 9.0493C40.7936 8.91922 40.7936 8.66005 40.7936 8.53087ZM44.0313 35.727H38.0736C36.9082 35.727 36.0013 34.82 36.0013 33.6547C36.0013 32.4893 36.9083 31.5824 38.0736 31.5824H44.0313C45.1966 31.5824 46.1036 32.4894 46.1036 33.6547C46.1036 34.6908 45.1975 35.727 44.0313 35.727ZM45.0674 27.9562H36.9084C35.743 27.9562 34.8361 27.0492 34.8361 25.8839C34.8361 24.7186 35.7431 23.8116 36.9084 23.8116H45.0674C46.2328 23.8116 47.1397 24.7186 47.1397 25.8839C47.2689 27.0501 46.2337 27.9562 45.0674 27.9562ZM46.3629 20.3156H40.0169C40.2761 19.6679 40.5345 18.891 40.5345 18.1141V16.1719H46.362C47.5273 16.1719 48.4343 17.0789 48.4343 18.2442C48.4352 19.4087 47.5282 20.3156 46.3629 20.3156Z" fill="white"/>
</svg>
