<svg width="52" height="40" viewBox="0 0 52 40" fill="none" xmlns="http://www.w3.org/2000/svg">
<path d="M-3.8147e-06 18.2438C-3.8147e-06 16.4307 0.906972 14.7469 2.33063 13.7106C1.42365 12.4152 1.0352 10.6023 1.55373 8.78918C2.33063 6.45855 4.66209 4.9038 7.122 4.9038H12.3017C13.4671 2.8315 15.5394 1.40692 18.0002 1.1486L25.5115 0.112446C29.5259 -0.405182 33.5406 0.88934 36.649 3.47935L44.1603 10.0839L50.118 10.0848C51.025 10.0848 51.931 10.8617 51.931 11.8978C51.931 12.934 51.1541 13.7108 50.118 13.7108H43.5134C43.125 13.7108 42.7365 13.5817 42.3481 13.3224L34.319 6.19938C31.9884 4.12709 29.0091 3.22099 26.0307 3.60951L18.5194 4.64566C16.3179 4.90493 14.7642 6.84714 14.7642 9.04861L14.8934 18.1137C14.8934 19.2791 15.8003 20.056 16.9656 20.056C17.4833 20.056 18.0018 19.7967 18.3902 19.4082C18.7778 19.0207 18.907 18.5031 18.907 17.8554L18.6477 11.6394C18.6477 10.7324 19.2954 9.95552 20.0723 9.82634L23.9577 9.17863C24.8647 9.04945 25.7707 9.69625 25.8999 10.6032C26.0291 11.5102 25.3823 12.4163 24.4753 12.5454L22.5331 12.8047C25.3822 19.0207 31.4692 18.5032 31.7284 18.5032C32.6354 18.374 33.5415 19.1509 33.6706 20.057V20.1861C33.6706 21.0931 33.0229 21.87 32.1169 21.87C29.656 22.1292 25.5123 21.4815 22.2747 18.2438C22.1455 19.4092 21.627 20.5745 20.7209 21.3522C20.3325 21.7406 19.944 21.9999 19.4255 22.3883C19.9431 23.2953 20.3325 24.3306 20.3325 25.4967C20.3325 27.3097 19.4255 28.8636 18.131 29.8997C18.7787 30.8066 19.1671 31.9719 19.1671 33.1373C19.1671 34.0443 18.9079 34.8211 18.6495 35.4679C23.5709 36.3749 28.7509 36.5041 32.507 36.3749C35.7447 36.3749 38.7231 34.691 40.4069 31.9719L41.443 30.2881C41.7023 29.7705 42.35 29.5112 42.8676 29.5112L50.1181 29.5103C51.025 29.5103 51.9311 30.2872 51.9311 31.3233C51.9311 32.3595 51.1542 33.1364 50.1181 33.1364H44.0313L43.5137 33.9132C41.1831 37.6684 37.0384 40 32.6355 40C28.1023 40 21.498 39.8708 15.5403 38.4462C15.0227 38.5754 14.375 38.7055 13.8565 38.7055H8.15801C5.04965 38.7055 2.33051 36.2446 2.33051 33.1372C2.33051 31.8418 2.71895 30.8066 3.36666 29.7703C2.07124 28.7341 1.16519 27.1804 1.16519 25.3674C1.16519 24.202 1.55364 23.0367 2.20135 22.1297C0.905925 21.7404 -3.8147e-06 20.0569 -3.8147e-06 18.2438ZM11.1374 8.53087H6.7345C5.56916 8.53087 4.6622 9.43784 4.6622 10.6032C4.6622 11.7685 5.56918 12.6755 6.7345 12.6755H11.1374L11.0083 9.0493C11.1374 8.91922 11.1374 8.66005 11.1374 8.53087ZM7.89981 35.727H13.8575C15.0229 35.727 15.9298 34.82 15.9298 33.6547C15.9298 32.4893 15.0228 31.5824 13.8575 31.5824H7.89981C6.73448 31.5824 5.82752 32.4894 5.82752 33.6547C5.82752 34.6908 6.7336 35.727 7.89981 35.727ZM6.86366 27.9562H15.0227C16.1881 27.9562 17.095 27.0492 17.095 25.8839C17.095 24.7186 16.188 23.8116 15.0227 23.8116H6.86366C5.69832 23.8116 4.79137 24.7186 4.79137 25.8839C4.66219 27.0501 5.69744 27.9562 6.86366 27.9562ZM5.56824 20.3156H11.9142C11.655 19.6679 11.3966 18.891 11.3966 18.1141V16.1719H5.56909C4.40375 16.1719 3.4968 17.0789 3.4968 18.2442C3.4959 19.4087 4.40292 20.3156 5.56824 20.3156Z" fill="white"/>
</svg>
