<svg width="69" height="40" viewBox="0 0 69 40" fill="none" xmlns="http://www.w3.org/2000/svg">
<path d="M63.6434 17.1555L50.0423 14.6474L61.1335 12.6672C64.1702 12.1395 66.1512 9.23441 65.6226 6.32953C65.0948 3.29284 62.1898 1.31177 59.1524 1.8404L39.4782 5.2732C38.4217 3.02864 36.1772 1.31176 33.5366 1.04745L26.1435 0.122717C22.1821 -0.405043 18.2206 0.783107 15.1842 3.42372L7.65743 10.0257H1.7168C0.792075 10.0257 0 10.8178 0 11.7425C0 12.6672 0.792099 13.4593 1.7168 13.4593H8.31881C8.71486 13.4593 9.11091 13.3276 9.50696 13.0633L17.4298 6.06516C19.6744 4.08494 22.711 3.16028 25.6161 3.55616L33.0101 4.48089C35.123 4.74523 36.7072 6.59375 36.7072 8.70665V8.83836L36.5755 17.8166C36.5755 18.8731 35.6508 19.7968 34.5953 19.7968C34.0675 19.7968 33.5389 19.5325 33.1428 19.1365C32.7468 18.7404 32.6151 18.2117 32.6151 17.684L32.8794 11.6096C32.8794 10.6849 32.219 9.89284 31.4269 9.76113L27.4655 9.23337C26.5407 9.10166 25.6169 9.76113 25.4852 10.6859C25.3535 11.6106 26.013 12.5344 26.9377 12.6661L28.918 12.9304C26.0131 19.0047 20.0713 18.6077 19.8069 18.6077C18.8822 18.476 17.9584 19.2681 17.9584 20.1919V20.3236C17.9584 21.2483 18.6188 21.9078 19.5426 22.0404C21.9189 22.3047 26.0128 21.6443 29.1813 18.4751C29.313 19.6632 29.8417 20.7196 30.6338 21.5118C31.0299 21.9078 31.5585 22.3039 32.0863 22.5682C31.6903 23.2286 31.2942 23.889 31.1616 24.6811C31.1616 25.0771 31.0299 25.3414 31.0299 25.6058C31.0299 27.0583 31.5576 28.3791 32.4824 29.3029C31.6903 30.095 31.0299 31.1514 30.8982 32.3396C30.8982 32.6039 30.7665 33 30.7665 33.2643C30.7665 34.0564 30.8982 34.8485 31.2942 35.6406C26.8051 36.301 22.1832 36.4327 18.8822 36.4327C15.713 36.4327 12.8079 34.7159 11.0921 32.0754L10.0356 30.4912C9.77129 29.9634 9.1109 29.699 8.58314 29.699L1.71681 29.7C0.792082 29.7 7.19562e-06 30.4921 7.19562e-06 31.4168C7.19562e-06 32.3415 0.792106 33.1336 1.71681 33.1336H7.65838L8.18614 33.9257C10.5624 37.6228 14.5238 39.8673 18.8812 40C22.9742 40 29.0485 39.8683 34.7257 38.6792C34.9901 38.8109 35.1218 38.8109 35.3861 38.8109L41.1961 39.8674C44.2328 40.3951 47.0061 38.4149 47.6663 35.3782C47.9307 34.1901 47.6663 33.002 47.1386 31.9454C47.4029 31.8137 47.5346 31.6811 47.799 31.5494C48.9871 30.7573 49.7792 29.4365 50.0435 27.9841C50.1752 27.3237 50.1752 26.5316 50.0435 25.8712L61.6633 27.8514C63.1158 28.1158 64.5682 27.8514 65.7563 26.9267C66.9445 26.1346 67.7365 24.8138 68.0009 23.3614C68.2652 21.9089 68.0009 20.4565 67.0762 19.2684C66.4158 18.2119 65.095 17.4199 63.6433 17.1555L63.6434 17.1555ZM40.2721 8.70493L59.8138 5.27212C60.8702 5.00778 62.0583 5.79988 62.19 6.98892V7.38497C62.19 8.3097 61.5296 9.23349 60.4732 9.3652L40.272 12.9305L40.4037 8.96908C40.272 8.83737 40.272 8.70474 40.272 8.70474L40.2721 8.70493ZM44.3651 34.7168C44.2334 35.2446 43.969 35.7733 43.573 36.0376C43.1769 36.302 42.5165 36.4337 41.9888 36.4337L36.1788 35.3772C35.651 35.2455 35.1223 34.9812 34.858 34.5851C34.5937 34.1891 34.4619 33.5287 34.4619 33.0009C34.5936 32.4732 34.858 31.9445 35.254 31.6802C35.6501 31.4158 36.3105 31.2841 36.8382 31.2841L42.6482 32.3405C43.7047 32.4723 44.4968 33.6604 44.365 34.7168L44.3651 34.7168ZM46.7413 27.4553C46.6096 27.9831 46.3453 28.5118 45.9492 28.7761C45.5532 29.0405 44.8928 29.1722 44.365 29.1722L36.4421 27.7197C35.9144 27.588 35.3857 27.3236 35.1214 26.9276C34.857 26.5315 34.7253 25.8711 34.7253 25.3434C34.857 24.2869 36.0461 23.4949 37.1016 23.6266L45.0244 25.0791C45.5522 25.2108 46.0809 25.4751 46.3452 25.8712C46.6096 26.2672 46.7413 26.6633 46.7413 27.0593V27.4554L46.7413 27.4553ZM63.9068 24.2861C63.5107 24.5505 62.8503 24.6822 62.3226 24.6822L39.2156 20.5892C39.7433 19.7971 40.0076 18.8724 40.0076 17.9486V16.6278L62.9829 20.7208C63.5106 20.8526 64.0393 21.1169 64.3037 21.5129C64.568 21.909 64.6997 22.5694 64.6997 23.0971C64.6988 23.4941 64.3027 23.8902 63.9067 24.2862L63.9068 24.2861Z" fill="black"/>
</svg>
