<svg width="69" height="40" viewBox="0 0 69 40" fill="none" xmlns="http://www.w3.org/2000/svg">
<path d="M4.45461 17.1555L18.0557 14.6474L6.96456 12.6672C3.92787 12.1395 1.94679 9.23441 2.47543 6.32953C3.00319 3.29284 5.90824 1.31177 8.94564 1.8404L28.6199 5.2732C29.6763 3.02864 31.9209 1.31176 34.5614 1.04745L41.9545 0.122717C45.9159 -0.405043 49.8774 0.783107 52.9138 3.42372L60.4406 10.0257H66.3812C67.3059 10.0257 68.098 10.8178 68.098 11.7425C68.098 12.6672 67.3059 13.4593 66.3812 13.4593H59.7792C59.3832 13.4593 58.9871 13.3276 58.5911 13.0633L50.6682 6.06516C48.4236 4.08494 45.387 3.16028 42.4819 3.55616L35.0879 4.48089C32.9751 4.74523 31.3908 6.59375 31.3908 8.70665V8.83836L31.5225 17.8166C31.5225 18.8731 32.4472 19.7968 33.5027 19.7968C34.0305 19.7968 34.5592 19.5325 34.9552 19.1365C35.3513 18.7404 35.483 18.2117 35.483 17.684L35.2186 11.6096C35.2186 10.6849 35.879 9.89284 36.6711 9.76113L40.6326 9.23337C41.5573 9.10166 42.4811 9.76113 42.6128 10.6859C42.7445 11.6106 42.085 12.5344 41.1603 12.6661L39.1801 12.9304C42.085 19.0047 48.0268 18.6077 48.2911 18.6077C49.2158 18.476 50.1396 19.2681 50.1396 20.1919V20.3236C50.1396 21.2483 49.4792 21.9078 48.5554 22.0404C46.1791 22.3047 42.0852 21.6443 38.9167 18.4751C38.785 19.6632 38.2563 20.7196 37.4642 21.5118C37.0682 21.9078 36.5395 22.3039 36.0117 22.5682C36.4078 23.2286 36.8038 23.889 36.9364 24.6811C36.9364 25.0771 37.0682 25.3414 37.0682 25.6058C37.0682 27.0583 36.5404 28.3791 35.6157 29.3029C36.4078 30.095 37.0682 31.1514 37.1999 32.3396C37.1999 32.6039 37.3316 33 37.3316 33.2643C37.3316 34.0564 37.1999 34.8485 36.8038 35.6406C41.2929 36.301 45.9148 36.4327 49.2158 36.4327C52.385 36.4327 55.2901 34.7159 57.006 32.0754L58.0624 30.4912C58.3267 29.9634 58.9871 29.699 59.5149 29.699L66.3812 29.7C67.3059 29.7 68.098 30.4921 68.098 31.4168C68.098 32.3415 67.3059 33.1336 66.3812 33.1336H60.4396L59.9119 33.9257C57.5356 37.6228 53.5742 39.8673 49.2169 40C45.1239 40 39.0495 39.8683 33.3723 38.6792C33.1079 38.8109 32.9762 38.8109 32.7119 38.8109L26.9019 39.8674C23.8652 40.3951 21.0919 38.4149 20.4317 35.3782C20.1673 34.1901 20.4317 33.002 20.9594 31.9454C20.6951 31.8137 20.5634 31.6811 20.2991 31.5494C19.1109 30.7573 18.3188 29.4365 18.0545 27.9841C17.9228 27.3237 17.9228 26.5316 18.0545 25.8712L6.43471 27.8514C4.98223 28.1158 3.52983 27.8514 2.3417 26.9267C1.15355 26.1346 0.361485 24.8138 0.0971455 23.3614C-0.167194 21.9089 0.0971396 20.4565 1.02187 19.2684C1.68226 18.2119 3.00302 17.4199 4.45468 17.1555L4.45461 17.1555ZM27.826 8.70493L8.28425 5.27212C7.22781 5.00778 6.03968 5.79988 5.908 6.98892V7.38497C5.908 8.3097 6.5684 9.23349 7.62481 9.3652L27.826 12.9305L27.6943 8.96908C27.826 8.83737 27.826 8.70474 27.826 8.70474L27.826 8.70493ZM23.733 34.7168C23.8647 35.2446 24.129 35.7733 24.525 36.0376C24.9211 36.302 25.5815 36.4337 26.1093 36.4337L31.9193 35.3772C32.447 35.2455 32.9757 34.9812 33.24 34.5851C33.5044 34.1891 33.6361 33.5287 33.6361 33.0009C33.5044 32.4732 33.24 31.9445 32.844 31.6802C32.4479 31.4158 31.7875 31.2841 31.2598 31.2841L25.4498 32.3405C24.3933 32.4723 23.6013 33.6604 23.733 34.7168L23.733 34.7168ZM21.3567 27.4553C21.4884 27.9831 21.7528 28.5118 22.1488 28.7761C22.5449 29.0405 23.2052 29.1722 23.733 29.1722L31.6559 27.7197C32.1836 27.588 32.7123 27.3236 32.9767 26.9276C33.241 26.5315 33.3727 25.8711 33.3727 25.3434C33.241 24.2869 32.0519 23.4949 30.9965 23.6266L23.0736 25.0791C22.5458 25.2108 22.0171 25.4751 21.7528 25.8712C21.4885 26.2672 21.3567 26.6633 21.3567 27.0593V27.4554L21.3567 27.4553ZM4.19125 24.2861C4.5873 24.5505 5.24768 24.6822 5.77544 24.6822L28.8825 20.5892C28.3547 19.7971 28.0904 18.8724 28.0904 17.9486V16.6278L5.11515 20.7208C4.58739 20.8526 4.05871 21.1169 3.79437 21.5129C3.53003 21.909 3.39832 22.5694 3.39832 23.0971C3.39924 23.4941 3.79529 23.8902 4.19134 24.2862L4.19125 24.2861Z" fill="white"/>
</svg>
